<?xml version="1.0" encoding="utf-8"?>
<!-- Generator: Adobe Illustrator 22.0.1, SVG Export Plug-In . SVG Version: 6.00 Build 0)  -->
<svg version="1.1" id="Layer_1" xmlns="http://www.w3.org/2000/svg" xmlns:xlink="http://www.w3.org/1999/xlink" x="0px" y="0px"
	 viewBox="0 0 812.5 245" style="enable-background:new 0 0 812.5 245;" xml:space="preserve">
<style type="text/css">
	.st0{fill:#03A9F4;}
	.st1{fill:#67DAFF;}
	.st2{fill:none;stroke:#02557A;stroke-width:4;stroke-linejoin:round;stroke-miterlimit:10;}
	.st3{fill:none;stroke:#02557A;stroke-width:4;stroke-linecap:square;stroke-linejoin:round;stroke-miterlimit:10;}
	.st4{fill:none;stroke:#03A9F4;stroke-width:4;stroke-linecap:square;stroke-linejoin:round;stroke-dasharray:21,8,55,13;}
	.st5{fill:none;stroke:#03A9F4;stroke-width:4;stroke-linecap:square;stroke-linejoin:round;}
	.st6{fill:none;stroke:#03A9F4;stroke-width:4;stroke-linecap:square;stroke-linejoin:round;stroke-dasharray:42.7066,26.4005;}
	.st7{fill:none;stroke:#03A9F4;stroke-width:4;stroke-linecap:square;stroke-linejoin:round;stroke-dasharray:21.9978,13.5869;}
	
		.st8{fill:none;stroke:#03A9F4;stroke-width:4;stroke-linecap:square;stroke-linejoin:round;stroke-dasharray:3.235,8.4109,21.9978,13.5869;}
	.st9{fill:#1F344A;}
</style>
<g>
	<g id="Ebene_5">
		<path class="st0" d="M140.4,197.7l-0.4,0.1l-18,3.3l0,0l-7.4,1.4l-30.3,5.6c-7.4,1.3-12.5,7.7-12.5,15c0,0.8,0.1,1.7,0.2,2.5
			c0,0.1,0,0.2,0,0.4c1.5,8.2,9.4,13.7,17.8,12.2l24.7-4.6l42.6-7.9l10.6-1.9c4.9-1,8.1-5.6,7.2-10.4l-3.7-20.3l-6.8,1.2
			L140.4,197.7z"/>
	</g>
	<g id="Ebene_4">
		<path class="st1" d="M64.4,193.2l-6.8-1.2l-3.7,20.3c-1,4.9,2.3,9.5,7.2,10.4l10.6,1.9l42.6,7.9l24.7,4.6
			c8.2,1.5,16.2-3.9,17.8-12.2c0-0.1,0-0.2,0-0.4c0.1-0.8,0.2-1.7,0.2-2.5c0-7.2-5.1-13.6-12.5-15l-30.3-5.6l-7.4-1.4l0,0l-18-3.3
			l-0.4-0.1L64.4,193.2z"/>
	</g>
	<g id="Ebene_2_Kopie">
		<path class="st1" d="M126.2,188.2c6.1-0.2,12-0.8,18-1.9l4.2,4.2c1.7,1.7,3.8,2.5,6,2.6c2.4,0.1,4.9-0.7,6.8-2.6l3.3-3.3v-56.4
			c0-7.5-5.7-13.7-13.1-14.4c-0.2,0-0.5,0-0.7-0.1c-0.2,0-0.5,0-0.8,0c-3.1,0-6,1-8.3,2.6l-1.7,1.5l-0.5,2.3l-4.5,26.8l-2.3,10.3
			l-0.1,0.6l-2.5,11.6L126.2,188.2z"/>
		<path class="st1" d="M101.1,188.2c-6.1-0.2-12-0.8-18-1.9l-4.2,4.2c-1.7,1.7-3.8,2.5-6,2.6c-2.4,0.1-4.9-0.7-6.8-2.6l-3.3-3.3
			v-56.4c0-7.5,5.7-13.7,13.1-14.4c0.2,0,0.5,0,0.7-0.1c0.2,0,0.5,0,0.8,0c3.1,0,6,1,8.3,2.6l1.7,1.5l0.5,2.3l4.5,26.8l2.3,10.3
			l0.1,0.6l2.5,11.6L101.1,188.2z"/>
		<path class="st0" d="M106.1,141c-0.1,0.5-0.8,1-1.1,1.3c0,0,0,0,0,0.1c0.1,0.5,1.1,1,1.1,1.4c0-0.5,1-1,1.1-1.4l0,0
			C107.1,141.9,106.3,141.4,106.1,141z M143.1,121.3c-1.9-2.3-4.3-4.1-6.9-5.4c-0.4-0.1-0.7-0.4-1-0.5c-2.1-0.8-4.5-1.3-7-1.3h-26.8
			c-6,0-11.3,2.7-14.9,7c0,0,0,0.1-0.1,0.1c-2.7,3.3-4.5,7.7-4.5,12.4v54l1.3-1.3c5.8,1,11.8,1.7,18,1.9c1.7,0.1,3.5,0.1,5.1,0.1
			c7.6,0,15.1-0.6,22.5-1.8l4.1,4.1c1.7,1.7,3.8,2.5,6,2.6c2.4,0.1,4.9-0.7,6.8-2.6l2-2v-54.8C147.6,129,146,124.6,143.1,121.3z
			 M119.9,157.4c-0.5,0.5-0.8,0.8-1.1,1.1c-0.1,0.1-0.4,0.4-0.5,0.5c-0.1,0.1-0.4,0.4-0.5,0.5l-0.8,0.8l-0.2,0.2l-6,6.3h-0.1h-0.1
			c-2.4-0.1-4.3-2-4.3-4.5c0,2.5-2,4.5-4.5,4.5l-7-7.4c-1.2-1.2-2-2.3-2-2.3s0-2.6,0-5v-8.5c0-1.7,0.8-3.1,2.1-3.9v-8.6
			c0-1.4,1.1-2.6,2.4-2.9v-1.1c0-2.4,1.8-4.2,3.9-4.5c0.1,0,0.4,0,0.5,0c0.5,0,1.1,0.1,1.5,0.2c0.6,0.2,1.2,0.6,1.7,1.1
			c0.7,0.8,1.3,1.9,1.3,3.1c0-1.2,0.6-2.3,1.3-3.1c0.4-0.4,0.7-0.6,1.2-0.8c0.6-0.4,1.3-0.5,2-0.5c0.6,0,1.2,0.1,1.7,0.4
			c1.7,0.7,2.9,2.3,2.9,4.2v1.1c1.4,0.2,2.4,1.4,2.4,2.9v8.6c1.3,0.8,2.1,2.3,2.1,3.9v8.3C119.7,154.5,119.7,155.4,119.9,157.4
			L119.9,157.4z M107.2,142.4L107.2,142.4c-0.1-0.5-1-1-1.1-1.4c-0.1,0.5-0.8,1-1.1,1.3c0,0,0,0,0,0.1c0.1,0.5,1.1,1,1.1,1.4
			C106.3,143.3,107.1,142.9,107.2,142.4z M106.1,127.5c0-0.1,0-0.1,0-0.2C106.1,127.4,106.1,127.4,106.1,127.5v13.3v0.1v-0.1V127.5z
			 M106.1,145L106.1,145L106.1,145v-1.2l0,0v18.4c0,0,0,0,0,0.1V145z"/>
	</g>
	<g id="Ebene_3">
		<path class="st2" d="M128.8,186.5c-7.3,1.2-14.8,1.8-22.5,1.8c-1.8,0-3.5,0-5.1-0.1c-6.1-0.2-12-0.8-18-1.9"/>
		<g>
			<g>
				<path class="st3" d="M106.1,146.1v-0.7c0-1.7-1.3-3-2.9-3l0,0c-1.5,0-2.9,1.3-2.9,3v2.1"/>
				<path class="st2" d="M97.2,128.4c-1.3,0.2-2.4,1.4-2.4,2.9v8.6c-1.3,0.8-2.1,2.3-2.1,3.9v8.3c0,2.3,0,5,0,5s0.8,1,2,2.3l7,7.4
					c2.5,0,4.4-2,4.5-4.5c0,0,0,0,0-0.1v-17V145l0,0v-1.1l0,0c0-0.5-1-1-1.1-1.4c0,0,0,0,0-0.1c0.2-0.5,1-0.8,1.1-1.3V141v-13.3
					c0-0.1,0-0.1,0-0.2c0-1.2-0.6-2.3-1.3-3.1c-0.5-0.5-1.1-0.8-1.7-1.1c-0.5-0.2-1-0.2-1.5-0.2c-0.2,0-0.4,0-0.5,0
					c-2.1,0.2-3.9,2.1-3.9,4.5C97.2,127.4,97.2,128,97.2,128.4z"/>
			</g>
			<g>
				<path class="st3" d="M106.1,146.1v-0.7c0-1.7,1.3-3,2.9-3l0,0c1.5,0,2.9,1.3,2.9,3v2.1"/>
				<path class="st2" d="M119.9,157.4L119.9,157.4c-0.5,0.5-0.8,0.8-1.1,1.1c-0.1,0.1-0.4,0.4-0.5,0.5c-0.1,0.1-0.4,0.4-0.5,0.5
					l-0.8,0.8l-0.2,0.2l-6,6.3h-0.1h-0.1c-2.4-0.1-4.3-2-4.3-4.5v-0.1v-18.4l0,0c0-0.5,1-1,1.1-1.4l0,0c-0.1-0.5-1-1-1.1-1.4v-0.1
					v-13.3c0-0.1,0-0.1,0-0.2c0-1.2,0.6-2.3,1.3-3.1c0.4-0.4,0.7-0.6,1.2-0.8c0.6-0.4,1.3-0.5,2-0.5c0.6,0,1.2,0.1,1.7,0.4
					c1.7,0.7,2.9,2.3,2.9,4.2v1.1c1.4,0.2,2.4,1.4,2.4,2.9v8.6c1.3,0.8,2.1,2.3,2.1,3.9v8.3C119.7,154.5,119.7,155.4,119.9,157.4z"
					/>
			</g>
		</g>
		<path class="st2" d="M73,193.2c2.1-0.1,4.3-1,6-2.6l2.9-2.9l1.3-1.3l14.4-14.4l4.4-4.5l-7-7l-11.4-11.6l-1.7,1.7l-8.8,8.8v-32.5
			c0-3.8,1.1-7.4,3.1-10.4c0.1-0.1,0.1-0.2,0.2-0.4c0.4-0.6,0.7-1.1,1.2-1.5c3.6-4.3,8.9-7.2,15-7.2h26.8c6,0,11.4,2.7,15,7
			c0.4,0.4,0.6,0.7,0.8,1.1c0.1,0.2,0.4,0.5,0.5,0.7c2,3.1,3.2,6.7,3.2,10.6v32.5l-10.5-10.5l-11.7,11.7l-6,6.3h-0.1h-0.1l-0.6,0.6
			l19,19.1l4.1,4.1c1.7,1.7,3.8,2.5,6,2.6"/>
		<path class="st2" d="M73,75.2c-0.6-2.4-0.8-5-0.8-7.6c0-18.6,15.1-33.7,33.7-33.7s33.7,15.1,33.7,33.7s-15.1,33.7-33.7,33.7
			c-8.9,0-17-3.5-23.1-9.1"/>
		<path class="st2" d="M55.5,177.1v-52.7c0-8,6.6-14.5,14.5-14.5c3.1,0,6,1,8.3,2.6"/>
		<path class="st2" d="M134,112.5c2.4-1.7,5.2-2.5,8.2-2.5c4.1,0,7.6,1.7,10.3,4.3c2.6,2.6,4.3,6.3,4.3,10.3v53"/>
		<g>
			<g>
				<path class="st4" d="M58.5,97.2c-4.6-8.1-7.3-17.5-7.3-27.5c0-30.5,24.6-55.2,54.9-55.2s54.9,24.7,54.9,55.2
					c0,4.8-0.6,9.4-1.8,13.8"/>
			</g>
		</g>
		<g>
			<g>
				<path class="st5" d="M151.9,9.2c3.3,2.5,6.4,5.4,9.3,8.3"/>
				<path class="st6" d="M168.7,27.1c8.2,12.2,13,26.8,13,42.6c0,7.4-1.1,14.4-3,21.2"/>
				<path class="st5" d="M172.8,105.4c-1.9,3.7-4.2,7.3-6.8,10.5"/>
			</g>
		</g>
		<path class="st3" d="M156.8,177.4v1.8l-9.2,9.2l-2,2c-1.9,1.9-4.3,2.7-6.8,2.6c-2.1-0.1-4.3-1-6-2.6l-4.1-4.1l-19-19.1l0.6-0.6
			h0.1h0.1l6-6.3l11.7-11.7l10.5,10.5l8.8,8.8L156.8,177.4z"/>
		<path class="st3" d="M55.5,177.4v1.8l9.2,9.2l2,2c1.9,1.9,4.3,2.7,6.8,2.6c2.1-0.1,4.3-1,6-2.6l4.1-4.1l19-19.1l-0.6-0.6h-0.1
			h-0.1l-6-6.3L84,148.7l-10.5,10.5l-8.8,8.8L55.5,177.4z"/>
		<path class="st2" d="M153.5,188.7l10.3-2.1l3.9,21.2c1,4.9-2.3,9.5-7.2,10.4l-10.6,1.9"/>
		<path class="st2" d="M69.6,220.2c0,0.1,0,0.2,0,0.2c1.3,7.4,8.5,12.3,15.7,10.8l22.1-4.1"/>
		<g>
			<g>
				<path class="st5" d="M43.5,112.1c-0.6-0.8-1.1-1.7-1.7-2.5"/>
				<path class="st7" d="M37.3,100.7c-4.2-9.4-6.6-20-6.6-31c0-0.8,0-1.5,0-2.4"/>
				<path class="st8" d="M31.3,59.2c2.3-16.4,9.8-31.2,20.9-42.6"/>
				<path class="st5" d="M58.1,11.2c0.7-0.6,1.5-1.3,2.4-1.9"/>
			</g>
		</g>
		<path class="st2" d="M57.6,187.6l-6.8-1.2l-3.7,20.3c-1,4.9,2.3,9.5,7.2,10.4l10.6,1.9l42.6,7.9l24.7,4.6
			c8.2,1.5,16.2-3.9,17.8-12.2c0-0.1,0-0.2,0-0.4c0.1-0.8,0.2-1.7,0.2-2.5c0-7.2-5.1-13.6-12.5-15l-30.3-5.6l-7.4-1.4l0,0l-18-3.3
			l-0.4-0.1"/>
		<path class="st2" d="M153.5,188.7l10.3-2.1l3.9,21.2c1,4.9-2.3,9.5-7.2,10.4l-10.6,1.9"/>
		<path class="st2" d="M69.6,220.2c0,0.1,0,0.2,0,0.2c1.3,7.4,8.5,12.3,15.7,10.8l22.1-4.1"/>
	</g>
</g>
<g>
	<path class="st9" d="M250.1,123.6c-7.4-7.8-13.9-13.7-19.5-17.8l8.9-10c7,5.2,13.9,10.8,20.6,16.7L250.1,123.6z M247.8,188.7
		l-15-3.9c4.8-13.4,9.5-30.1,13.9-50.1c1.9,0.4,4.6,1.3,8.4,2.8c2.6,0.7,4.6,1.3,6.1,1.7C254.9,161.1,250.4,177.6,247.8,188.7z
		 M254.5,88c-5.6-6.7-12.1-13-19.5-18.9l9.5-10c3,2.2,7,5.8,12.2,10.6c3.7,3.3,6.5,5.8,8.4,7.2L254.5,88z M266.8,126.4
		c-1.9-3.3-4.3-7.2-7.2-11.7c6.7-3.3,13.4-8.2,20-14.5c-1.5-1.5-3.7-3.5-6.7-6.1c-3.3-3-5.8-5-7.2-6.1l8.4-7.8
		c1.1,1.1,3,2.6,5.6,4.5c3.3,3,5.9,5.2,7.8,6.7c3.3-4.8,6.5-10.2,9.5-16.1H269V64h41.2v11.7c-3.3,8.5-7.4,16.1-12.2,22.8h31.2
		C321.7,88.1,316.3,75,313,59l12.8-0.6c1.1,4.8,2.4,9.5,3.9,13.9c6.3-4.1,11.9-8,16.7-11.7l7.8,9.5c-1.9,1.1-4.5,2.6-7.8,4.5
		c-5.2,3.3-9.3,5.9-12.2,7.8c1.5,3.3,3.3,6.1,5.6,8.4c6.3-3.7,12.2-7.8,17.8-12.2l7.2,10c-5.9,3.7-11.7,7.2-17.3,10.6
		c5.2,4.8,11.5,9.3,18.9,13.4c-0.4,1.1-1.5,3.2-3.3,6.1c-1.5,3-2.6,5-3.3,6.1c-2.6-1.9-5.4-3.5-8.4-5v35.1H274v-33.4
		C271.8,122.8,269.4,124.5,266.8,126.4z M261.2,185.9v-11.7h30.6c-3.3-4.5-6.7-9.1-10-13.9l13.4-4.5c5.2,7.1,9.3,13.2,12.2,18.4
		h-1.7h12.8c4.8-6.3,8.9-12.4,12.2-18.4l13.9,3.9c-4.1,6.7-7.4,11.5-10,14.5h29.5v11.7H261.2z M351.4,119.1
		c-4.8-3.3-9.3-6.9-13.4-10.6v0.6h-49c-3.7,3.7-7.8,7.1-12.2,10H351.4z M288.5,130.3v13.4h49v-13.4H288.5z"/>
	<path class="st9" d="M388.7,189.8l-14.5-3.3c5.2-10.4,9.1-19.7,11.7-27.8l14.5,2.8C397,170.3,393.1,179.8,388.7,189.8z
		 M432.7,102.4c-0.7-0.7-2-2.2-3.9-4.5c-2.2-2.2-3.9-3.9-5-5v57.3h-43.4V64h43.4v27.8c8.2-10.4,14.8-22.1,20-35.1l13.9,1.7
		c-1.1,4.1-2.6,7.8-4.5,11.1h50.7c0,4.8,0,6.5,0,5c-0.7,27.5-1.3,46-1.7,55.7c0.4,15.6-6.7,23.2-21.2,22.8
		c-3.7,0.4-10.2,0.6-19.5,0.6c-0.4-0.7-0.7-2-1.1-3.9c-0.7-3.3-1.5-6.3-2.2-8.9c6.7,0,12.8,0,18.4,0c8.5,0.7,12.8-3.3,12.8-12.2
		c0.7-19.3,1.1-34.9,1.1-46.8h-44c-1.9,4.5-4.5,8.5-7.8,12.2h38.4v41.8h-41.8V99.1L432.7,102.4z M393.1,76.3v24.5H411V76.3H393.1z
		 M393.1,112.4v25.6H411v-25.6H393.1z M419.9,187.6c-2.6-9.3-5.2-17.6-7.8-25.1l13.9-2.2c1.1,3,2.6,7.2,4.5,12.8
		c1.9,5.2,3.3,9.3,4.5,12.2L419.9,187.6z M454.9,186.5c-2.6-8.2-5.8-16.3-9.5-24.5l13.9-2.2c2.2,4.1,5,10.4,8.4,18.9
		c1.1,2.2,1.9,3.9,2.2,5L454.9,186.5z M447.7,105.8v18.4H465v-18.4H447.7z M492.2,187.6c-1.9-4.5-5-11.3-9.5-20.6
		c-1.1-3-2-5.2-2.8-6.7l13.4-2.8c2.6,4.5,5.9,10.8,10,18.9c1.5,3,2.6,5.2,3.3,6.7L492.2,187.6z"/>
	<path class="st9" d="M525.1,188.7c-3.3-3-6.9-5.6-10.6-7.8c7-13.7,10.4-37.9,10-72.4V65.1c27.1-0.4,47.1-1.5,60.1-3.3l2.2,10.6
		c-18.9,1.5-35.8,2.6-50.7,3.3v6.7h51.2v28.4h-51.2c0,2.6,0,6.7,0,12.2c-0.4,5.6-0.6,9.8-0.6,12.8c4.5-6.7,8.4-14.8,11.7-24.5
		l10.6,1.7l-3.3,8.4h8.4l3.3-8.9l10,0.6c-0.7,2.6-1.7,5.4-2.8,8.4h13.9v8.9h-12.8v9.5h11.7v8.4h-11.7v9.5h11.7v7.8h-11.7v8.9H588
		v5.6c1.5-0.7,3.7-2.2,6.7-4.5c6.7-3.7,11.3-6.7,13.9-8.9l8.4,7.8c-7.1,5.9-14.7,11.5-22.8,16.7l-6.7-7.8h-36.7v6.1h-10.6v-43.4
		l-2.8,3.3l-2.8-3.3C533.4,164.8,530.3,179.1,525.1,188.7z M575.2,92.4h-39v8.9h39V92.4z M550.7,130.3v9.5h13.4v-9.5H550.7z
		 M550.7,148.1v9.5h13.4v-9.5H550.7z M550.7,165.3v8.9h13.4v-8.9H550.7z M591.9,76.3V64h57.3v12.2h-23.4l-2.2,11.1h22.3v76.8h-51.2
		V87.4h15.6l1.7-11.1H591.9z M606.9,98v11.7h26.7V98H606.9z M606.9,119.1v11.7h26.7v-11.7H606.9z M606.9,140.3v12.8h26.7v-12.8
		H606.9z M643.1,190.4c-2.2-1.9-6.3-5-12.2-9.5c-4.1-3-7.1-5.2-8.9-6.7l8.4-7.8c3,2.2,7.6,5.2,13.9,8.9c3.3,2.2,5.8,3.9,7.2,5
		L643.1,190.4z"/>
	<path class="st9" d="M664.8,189.8V62.9h54.6v52.3h-40.1v74.6H664.8z M679.3,73.5v11.1h26.2V73.5H679.3z M679.3,104.7h26.2V93.5
		h-26.2V104.7z M697.1,168.7v-42.9H755v42.9H697.1z M741.7,157v-20h-31.2v20H741.7z M748.9,188.7c-0.4-4.5-1.5-9.3-3.3-14.5
		c3.3,0.4,9.3,0.6,17.8,0.6c7,0.4,10.4-2.4,10-8.4v-51.2h-40.6V62.9h55.1v106.3c0.7,12.6-5.6,18.9-18.9,18.9
		C764.5,188.5,757.8,188.7,748.9,188.7z M746.7,73.5v11.1h26.7V73.5H746.7z M746.7,93.5v11.1h26.7V93.5H746.7z"/>
</g>
</svg>
